<svg width="408" height="258" viewBox="0 0 408 258" fill="none" xmlns="http://www.w3.org/2000/svg">
<path opacity="0.5" d="M262.584 173.866V171.097C262.655 158.241 263.863 148.014 266.207 140.415C268.621 132.815 272.03 126.707 276.434 122.091C280.837 117.403 286.199 113.107 292.52 109.2C296.853 106.501 300.724 103.554 304.133 100.358C307.613 97.0909 310.347 93.4687 312.336 89.4915C314.324 85.4432 315.319 80.9332 315.319 75.9616C315.319 70.3509 314.005 65.4858 311.377 61.3665C308.749 57.2472 305.198 54.0511 300.724 51.7784C296.32 49.5057 291.384 48.3693 285.915 48.3693C280.873 48.3693 276.079 49.4702 271.533 51.6719C267.059 53.8026 263.33 57.0696 260.347 61.473C257.435 65.8054 255.802 71.3097 255.447 77.9858H217.52C217.876 64.4915 221.143 53.1989 227.322 44.108C233.572 35.017 241.81 28.1989 252.037 23.6534C262.336 19.1079 273.699 16.8352 286.128 16.8352C299.694 16.8352 311.626 19.2145 321.924 23.973C332.293 28.7315 340.354 35.5142 346.107 44.321C351.931 53.0568 354.843 63.4261 354.843 75.429C354.843 83.5256 353.529 90.7699 350.901 97.1619C348.344 103.554 344.687 109.236 339.928 114.207C335.17 119.179 329.523 123.618 322.989 127.524C317.236 131.075 312.513 134.768 308.82 138.604C305.198 142.439 302.499 146.949 300.724 152.134C299.019 157.247 298.131 163.568 298.06 171.097V173.866H262.584ZM281.121 240.344C274.729 240.344 269.225 238.071 264.608 233.526C259.992 228.98 257.684 223.44 257.684 216.906C257.684 210.514 259.992 205.045 264.608 200.5C269.225 195.955 274.729 193.682 281.121 193.682C287.442 193.682 292.911 195.955 297.528 200.5C302.215 205.045 304.559 210.514 304.559 216.906C304.559 221.239 303.458 225.18 301.256 228.732C299.126 232.283 296.285 235.124 292.733 237.254C289.253 239.314 285.383 240.344 281.121 240.344Z" fill="#F3A227"/>
<path d="M5.02131 86V35.0909H24.1122C28.0232 35.0909 31.3045 35.8201 33.956 37.2784C36.6241 38.7367 38.6375 40.7419 39.9965 43.294C41.3719 45.8295 42.0597 48.7131 42.0597 51.9446C42.0597 55.2093 41.3719 58.1094 39.9965 60.6449C38.621 63.1804 36.5909 65.1773 33.9062 66.6357C31.2216 68.0774 27.9155 68.7983 23.9879 68.7983H11.3352V61.2166H22.745C25.032 61.2166 26.9046 60.8189 28.3629 60.0234C29.8213 59.228 30.8984 58.1342 31.5945 56.7422C32.3071 55.3501 32.6634 53.7509 32.6634 51.9446C32.6634 50.1383 32.3071 48.5473 31.5945 47.1719C30.8984 45.7964 29.813 44.7275 28.3381 43.9652C26.8797 43.1863 24.9988 42.7969 22.6953 42.7969H14.2436V86H5.02131ZM65.7804 86.7457C62.0517 86.7457 58.8201 85.9254 56.0858 84.2848C53.3514 82.6442 51.2302 80.349 49.7221 77.3991C48.2306 74.4493 47.4849 71.0024 47.4849 67.0582C47.4849 63.1141 48.2306 59.6589 49.7221 56.6925C51.2302 53.7261 53.3514 51.4226 56.0858 49.782C58.8201 48.1413 62.0517 47.321 65.7804 47.321C69.5091 47.321 72.7406 48.1413 75.475 49.782C78.2093 51.4226 80.3223 53.7261 81.8137 56.6925C83.3218 59.6589 84.0758 63.1141 84.0758 67.0582C84.0758 71.0024 83.3218 74.4493 81.8137 77.3991C80.3223 80.349 78.2093 82.6442 75.475 84.2848C72.7406 85.9254 69.5091 86.7457 65.7804 86.7457ZM65.8301 79.5369C67.8519 79.5369 69.5422 78.9818 70.9011 77.8714C72.26 76.7446 73.2709 75.2365 73.9338 73.3473C74.6132 71.4581 74.9529 69.3535 74.9529 67.0334C74.9529 64.6967 74.6132 62.5838 73.9338 60.6946C73.2709 58.7888 72.26 57.2725 70.9011 56.1456C69.5422 55.0187 67.8519 54.4553 65.8301 54.4553C63.7586 54.4553 62.0351 55.0187 60.6596 56.1456C59.3007 57.2725 58.2815 58.7888 57.6021 60.6946C56.9392 62.5838 56.6078 64.6967 56.6078 67.0334C56.6078 69.3535 56.9392 71.4581 57.6021 73.3473C58.2815 75.2365 59.3007 76.7446 60.6596 77.8714C62.0351 78.9818 63.7586 79.5369 65.8301 79.5369ZM91.7134 86V47.8182H100.439V54.1818H100.836C101.532 51.9777 102.725 50.2791 104.416 49.0859C106.123 47.8762 108.07 47.2713 110.257 47.2713C110.755 47.2713 111.31 47.2962 111.923 47.3459C112.553 47.379 113.075 47.437 113.489 47.5199V55.7976C113.108 55.665 112.503 55.549 111.674 55.4496C110.862 55.3336 110.075 55.2756 109.313 55.2756C107.672 55.2756 106.197 55.6319 104.888 56.3445C103.596 57.0405 102.576 58.0099 101.831 59.2528C101.085 60.4957 100.712 61.9292 100.712 63.5533V86H91.7134ZM143.374 100.318V79.9844H143.002C142.538 80.9124 141.866 81.8984 140.988 82.9425C140.11 83.9699 138.95 84.8482 137.508 85.5774C136.066 86.3066 134.252 86.6712 132.064 86.6712C129.065 86.6712 126.38 85.9006 124.01 84.3594C121.64 82.8182 119.768 80.581 118.392 77.6477C117.017 74.7145 116.329 71.1515 116.329 66.9588C116.329 62.7164 117.025 59.1368 118.417 56.2202C119.826 53.2869 121.723 51.0746 124.11 49.5831C126.496 48.075 129.156 47.321 132.089 47.321C134.326 47.321 136.166 47.7022 137.607 48.4645C139.049 49.2102 140.193 50.1134 141.038 51.174C141.883 52.218 142.538 53.2041 143.002 54.1321H143.548V47.8182H152.398V100.318H143.374ZM134.575 79.2884C136.481 79.2884 138.105 78.7746 139.447 77.7472C140.789 76.7031 141.808 75.2531 142.504 73.397C143.2 71.541 143.548 69.3783 143.548 66.9091C143.548 64.4399 143.2 62.2938 142.504 60.4709C141.825 58.648 140.814 57.2311 139.472 56.2202C138.146 55.2093 136.514 54.7038 134.575 54.7038C132.57 54.7038 130.896 55.2259 129.553 56.2699C128.211 57.3139 127.2 58.7557 126.521 60.5952C125.841 62.4347 125.502 64.5393 125.502 66.9091C125.502 69.2955 125.841 71.425 126.521 73.2976C127.217 75.1536 128.236 76.6203 129.578 77.6974C130.937 78.758 132.603 79.2884 134.575 79.2884ZM185.981 69.9418V47.8182H194.98V86H186.254V79.2138H185.857C184.995 81.3516 183.578 83.0999 181.606 84.4588C179.651 85.8177 177.239 86.4972 174.372 86.4972C171.87 86.4972 169.658 85.942 167.735 84.8317C165.829 83.7048 164.338 82.0724 163.261 79.9347C162.184 77.7803 161.645 75.1785 161.645 72.1293V47.8182H170.644V70.7372C170.644 73.1567 171.307 75.0791 172.632 76.5043C173.958 77.9295 175.698 78.642 177.852 78.642C179.178 78.642 180.463 78.3189 181.705 77.6726C182.948 77.0263 183.968 76.0651 184.763 74.7891C185.575 73.4964 185.981 71.8807 185.981 69.9418ZM221.136 86.7457C217.308 86.7457 214.002 85.9503 211.218 84.3594C208.451 82.7519 206.321 80.4815 204.83 77.5483C203.338 74.5985 202.592 71.1267 202.592 67.1328C202.592 63.2053 203.338 59.7583 204.83 56.7919C206.338 53.8089 208.442 51.4889 211.143 49.8317C213.845 48.1579 217.018 47.321 220.664 47.321C223.017 47.321 225.238 47.7022 227.326 48.4645C229.431 49.2102 231.287 50.3703 232.894 51.9446C234.518 53.5189 235.794 55.5241 236.722 57.9602C237.65 60.3797 238.114 63.2633 238.114 66.6108V69.37H206.818V63.3047H229.489C229.472 61.5812 229.099 60.0483 228.37 58.706C227.641 57.3471 226.622 56.2782 225.312 55.4993C224.02 54.7204 222.512 54.331 220.788 54.331C218.949 54.331 217.333 54.7784 215.941 55.6733C214.549 56.5516 213.464 57.7116 212.685 59.1534C211.922 60.5786 211.533 62.1446 211.516 63.8516V69.1463C211.516 71.367 211.922 73.2727 212.734 74.8636C213.546 76.438 214.682 77.6477 216.14 78.4929C217.598 79.3215 219.305 79.7358 221.261 79.7358C222.57 79.7358 223.755 79.5535 224.815 79.1889C225.876 78.8078 226.796 78.2526 227.575 77.5234C228.353 76.7943 228.942 75.8911 229.339 74.8139L237.741 75.7585C237.211 77.9792 236.2 79.9181 234.709 81.5753C233.234 83.2159 231.345 84.492 229.041 85.4034C226.738 86.2983 224.103 86.7457 221.136 86.7457ZM279.745 86.7457C276.017 86.7457 272.785 85.9254 270.051 84.2848C267.316 82.6442 265.195 80.349 263.687 77.3991C262.195 74.4493 261.45 71.0024 261.45 67.0582C261.45 63.1141 262.195 59.6589 263.687 56.6925C265.195 53.7261 267.316 51.4226 270.051 49.782C272.785 48.1413 276.017 47.321 279.745 47.321C283.474 47.321 286.705 48.1413 289.44 49.782C292.174 51.4226 294.287 53.7261 295.779 56.6925C297.287 59.6589 298.041 63.1141 298.041 67.0582C298.041 71.0024 297.287 74.4493 295.779 77.3991C294.287 80.349 292.174 82.6442 289.44 84.2848C286.705 85.9254 283.474 86.7457 279.745 86.7457ZM279.795 79.5369C281.817 79.5369 283.507 78.9818 284.866 77.8714C286.225 76.7446 287.236 75.2365 287.899 73.3473C288.578 71.4581 288.918 69.3535 288.918 67.0334C288.918 64.6967 288.578 62.5838 287.899 60.6946C287.236 58.7888 286.225 57.2725 284.866 56.1456C283.507 55.0187 281.817 54.4553 279.795 54.4553C277.723 54.4553 276 55.0187 274.624 56.1456C273.266 57.2725 272.246 58.7888 271.567 60.6946C270.904 62.5838 270.573 64.6967 270.573 67.0334C270.573 69.3535 270.904 71.4581 271.567 73.3473C272.246 75.2365 273.266 76.7446 274.624 77.8714C276 78.9818 277.723 79.5369 279.795 79.5369ZM5.02131 171V120.091H14.2436V141.643H37.8338V120.091H47.081V171H37.8338V149.374H14.2436V171H5.02131ZM81.0494 154.942V132.818H90.0479V171H81.3228V164.214H80.9251C80.0633 166.352 78.6464 168.1 76.6744 169.459C74.7189 170.818 72.3076 171.497 69.4407 171.497C66.9383 171.497 64.726 170.942 62.8036 169.832C60.8978 168.705 59.4064 167.072 58.3292 164.935C57.252 162.78 56.7134 160.179 56.7134 157.129V132.818H65.712V155.737C65.712 158.157 66.3749 160.079 67.7006 161.504C69.0264 162.929 70.7665 163.642 72.9208 163.642C74.2466 163.642 75.5309 163.319 76.7738 162.673C78.0167 162.026 79.0359 161.065 79.8313 159.789C80.6433 158.496 81.0494 156.881 81.0494 154.942ZM99.699 171V120.091H108.698V139.132H109.07C109.535 138.204 110.189 137.218 111.034 136.174C111.879 135.113 113.023 134.21 114.465 133.464C115.906 132.702 117.746 132.321 119.983 132.321C122.933 132.321 125.593 133.075 127.963 134.583C130.349 136.075 132.238 138.287 133.63 141.22C135.039 144.137 135.743 147.716 135.743 151.959C135.743 156.152 135.055 159.714 133.68 162.648C132.304 165.581 130.432 167.818 128.062 169.359C125.692 170.901 123.008 171.671 120.008 171.671C117.82 171.671 116.006 171.307 114.564 170.577C113.122 169.848 111.962 168.97 111.084 167.942C110.222 166.898 109.551 165.912 109.07 164.984H108.548V171H99.699ZM108.524 151.909C108.524 154.378 108.872 156.541 109.568 158.397C110.28 160.253 111.299 161.703 112.625 162.747C113.968 163.775 115.592 164.288 117.497 164.288C119.486 164.288 121.151 163.758 122.494 162.697C123.836 161.62 124.847 160.154 125.526 158.298C126.222 156.425 126.57 154.295 126.57 151.909C126.57 149.539 126.231 147.435 125.551 145.595C124.872 143.756 123.861 142.314 122.519 141.27C121.176 140.226 119.503 139.704 117.497 139.704C115.575 139.704 113.943 140.209 112.6 141.22C111.258 142.231 110.239 143.648 109.543 145.471C108.863 147.294 108.524 149.44 108.524 151.909Z" fill="black"/>
<path d="M161.154 120.091H172.44L187.553 156.98H188.15L203.263 120.091H214.549V171H205.7V136.025H205.227L191.158 170.851H184.545L170.476 135.95H170.004V171H161.154V120.091ZM235.181 171.771C232.762 171.771 230.582 171.34 228.643 170.478C226.721 169.6 225.196 168.307 224.07 166.6C222.959 164.893 222.404 162.789 222.404 160.286C222.404 158.132 222.802 156.35 223.597 154.942C224.393 153.533 225.478 152.406 226.854 151.561C228.229 150.716 229.779 150.078 231.502 149.647C233.242 149.2 235.04 148.876 236.896 148.678C239.134 148.446 240.948 148.238 242.34 148.056C243.732 147.857 244.743 147.559 245.373 147.161C246.019 146.747 246.342 146.109 246.342 145.247V145.098C246.342 143.225 245.787 141.775 244.677 140.748C243.567 139.72 241.967 139.207 239.879 139.207C237.675 139.207 235.927 139.687 234.634 140.648C233.358 141.61 232.496 142.745 232.049 144.054L223.647 142.861C224.31 140.541 225.404 138.602 226.928 137.044C228.453 135.47 230.317 134.293 232.521 133.514C234.725 132.719 237.161 132.321 239.83 132.321C241.669 132.321 243.5 132.536 245.323 132.967C247.146 133.398 248.812 134.111 250.32 135.105C251.828 136.083 253.037 137.417 253.949 139.107C254.877 140.798 255.341 142.911 255.341 145.446V171H246.69V165.755H246.392C245.845 166.816 245.075 167.81 244.08 168.738C243.103 169.649 241.868 170.387 240.376 170.95C238.902 171.497 237.17 171.771 235.181 171.771ZM237.518 165.158C239.324 165.158 240.89 164.802 242.216 164.089C243.542 163.36 244.561 162.399 245.273 161.206C246.003 160.013 246.367 158.712 246.367 157.303V152.804C246.085 153.036 245.605 153.251 244.925 153.45C244.263 153.649 243.517 153.823 242.688 153.972C241.86 154.121 241.039 154.254 240.227 154.37C239.415 154.486 238.711 154.585 238.114 154.668C236.772 154.851 235.571 155.149 234.51 155.563C233.449 155.978 232.612 156.558 231.999 157.303C231.386 158.032 231.08 158.977 231.08 160.137C231.08 161.794 231.684 163.045 232.894 163.891C234.104 164.736 235.645 165.158 237.518 165.158ZM283.455 132.818V139.778H261.506V132.818H283.455ZM266.925 123.67H275.923V159.516C275.923 160.725 276.106 161.653 276.47 162.3C276.851 162.929 277.348 163.36 277.962 163.592C278.575 163.824 279.254 163.94 280 163.94C280.563 163.94 281.077 163.899 281.541 163.816C282.022 163.733 282.386 163.659 282.635 163.592L284.151 170.627C283.671 170.793 282.983 170.975 282.088 171.174C281.21 171.373 280.133 171.489 278.857 171.522C276.603 171.588 274.573 171.249 272.766 170.503C270.96 169.741 269.527 168.564 268.466 166.973C267.422 165.382 266.908 163.393 266.925 161.007V123.67ZM307.226 171.746C303.414 171.746 300.141 170.909 297.407 169.235C294.689 167.561 292.593 165.25 291.118 162.3C289.659 159.333 288.93 155.92 288.93 152.058C288.93 148.18 289.676 144.758 291.167 141.792C292.659 138.809 294.764 136.489 297.481 134.832C300.216 133.158 303.447 132.321 307.176 132.321C310.275 132.321 313.018 132.893 315.404 134.036C317.807 135.163 319.721 136.762 321.146 138.834C322.571 140.889 323.383 143.292 323.582 146.043H314.981C314.633 144.203 313.805 142.67 312.496 141.444C311.203 140.201 309.471 139.58 307.3 139.58C305.461 139.58 303.845 140.077 302.453 141.071C301.061 142.049 299.975 143.457 299.197 145.297C298.434 147.136 298.053 149.34 298.053 151.909C298.053 154.511 298.434 156.748 299.197 158.621C299.959 160.477 301.028 161.91 302.403 162.921C303.795 163.915 305.428 164.413 307.3 164.413C308.626 164.413 309.811 164.164 310.855 163.667C311.916 163.153 312.802 162.416 313.515 161.455C314.227 160.493 314.716 159.325 314.981 157.95H323.582C323.367 160.651 322.571 163.045 321.196 165.134C319.82 167.205 317.948 168.829 315.578 170.006C313.208 171.166 310.424 171.746 307.226 171.746ZM339.97 148.628V171H330.971V120.091H339.771V139.306H340.218C341.113 137.152 342.497 135.453 344.37 134.21C346.259 132.951 348.662 132.321 351.578 132.321C354.23 132.321 356.542 132.876 358.514 133.987C360.486 135.097 362.011 136.721 363.088 138.859C364.181 140.996 364.728 143.607 364.728 146.689V171H355.73V148.081C355.73 145.512 355.067 143.515 353.741 142.09C352.432 140.648 350.592 139.928 348.223 139.928C346.632 139.928 345.207 140.276 343.947 140.972C342.704 141.651 341.726 142.637 341.014 143.93C340.318 145.222 339.97 146.788 339.97 148.628Z" fill="#49C388"/>
</svg>
